# xmcd
#
# Track frame offsets:
# 150
# 14994
# 25334
# 40713
# 56143
# 66560
# 76107
# 90999
# 106393
# 118148
# 137492
# 164237
#
# Disc length: 2390 seconds
#
#
# Revision: 3
# Processed by: cddbd v1.5.1PL2 Copyright (c) Steve Scherf et al.
# Submitted via: FreeRIP 2.942 
#
DISCID=a709540c
DTITLE=Willie Dixon and Memphis Slim - Willie's blues
DYEAR=1959
DGENRE=Blues
TTITLE0=Nervous
TTITLE1=Good Understanding
TTITLE2=That's My Baby
TTITLE3=Slim's Thing
TTITLE4=That's All I Want Baby
TTITLE5=Don't You Tell Nobody
TTITLE6=Youth to You
TTITLE7=Sittin' and Cryin' the Blues
TTITLE8=Built for Comfort
TTITLE9=I Got a Razor
TTITLE10=Go Easy
TTITLE11=Move Me
EXTD=Label: Prestige - Bluesville\nCode: OBCCD-501-2 (BV-1003]\nAAD\nRecorded: Englewood Cliffs,NJ;December 3, 1959
EXTT0=
EXTT1=
EXTT2=
EXTT3=
EXTT4=
EXTT5=
EXTT6=
EXTT7=
EXTT8=
EXTT9=
EXTT10=
EXTT11=
PLAYORDER=
